G04 #@! TF.GenerationSoftware,KiCad,Pcbnew,5.1.5+dfsg1-2build2*
G04 #@! TF.CreationDate,2021-06-17T20:27:07-04:00*
G04 #@! TF.ProjectId,SerialBoard,53657269-616c-4426-9f61-72642e6b6963,rev?*
G04 #@! TF.SameCoordinates,Original*
G04 #@! TF.FileFunction,Legend,Top*
G04 #@! TF.FilePolarity,Positive*
%FSLAX46Y46*%
G04 Gerber Fmt 4.6, Leading zero omitted, Abs format (unit mm)*
G04 Created by KiCad (PCBNEW 5.1.5+dfsg1-2build2) date 2021-06-17 20:27:07*
%MOMM*%
%LPD*%
G04 APERTURE LIST*
%ADD10C,0.150000*%
%ADD11C,0.120000*%
G04 APERTURE END LIST*
D10*
X114625857Y-103068380D02*
X114054428Y-103068380D01*
X114340142Y-103068380D02*
X114340142Y-102068380D01*
X114244904Y-102211238D01*
X114149666Y-102306476D01*
X114054428Y-102354095D01*
X115054428Y-102973142D02*
X115102047Y-103020761D01*
X115054428Y-103068380D01*
X115006809Y-103020761D01*
X115054428Y-102973142D01*
X115054428Y-103068380D01*
X115673476Y-102496952D02*
X115578238Y-102449333D01*
X115530619Y-102401714D01*
X115483000Y-102306476D01*
X115483000Y-102258857D01*
X115530619Y-102163619D01*
X115578238Y-102116000D01*
X115673476Y-102068380D01*
X115863952Y-102068380D01*
X115959190Y-102116000D01*
X116006809Y-102163619D01*
X116054428Y-102258857D01*
X116054428Y-102306476D01*
X116006809Y-102401714D01*
X115959190Y-102449333D01*
X115863952Y-102496952D01*
X115673476Y-102496952D01*
X115578238Y-102544571D01*
X115530619Y-102592190D01*
X115483000Y-102687428D01*
X115483000Y-102877904D01*
X115530619Y-102973142D01*
X115578238Y-103020761D01*
X115673476Y-103068380D01*
X115863952Y-103068380D01*
X115959190Y-103020761D01*
X116006809Y-102973142D01*
X116054428Y-102877904D01*
X116054428Y-102687428D01*
X116006809Y-102592190D01*
X115959190Y-102544571D01*
X115863952Y-102496952D01*
X116911571Y-102401714D02*
X116911571Y-103068380D01*
X116673476Y-102020761D02*
X116435380Y-102735047D01*
X117054428Y-102735047D01*
X117340142Y-102068380D02*
X117959190Y-102068380D01*
X117625857Y-102449333D01*
X117768714Y-102449333D01*
X117863952Y-102496952D01*
X117911571Y-102544571D01*
X117959190Y-102639809D01*
X117959190Y-102877904D01*
X117911571Y-102973142D01*
X117863952Y-103020761D01*
X117768714Y-103068380D01*
X117483000Y-103068380D01*
X117387761Y-103020761D01*
X117340142Y-102973142D01*
X118340142Y-102163619D02*
X118387761Y-102116000D01*
X118483000Y-102068380D01*
X118721095Y-102068380D01*
X118816333Y-102116000D01*
X118863952Y-102163619D01*
X118911571Y-102258857D01*
X118911571Y-102354095D01*
X118863952Y-102496952D01*
X118292523Y-103068380D01*
X118911571Y-103068380D01*
X119340142Y-103068380D02*
X119340142Y-102068380D01*
X119673476Y-102782666D01*
X120006809Y-102068380D01*
X120006809Y-103068380D01*
X120483000Y-103068380D02*
X120483000Y-102068380D01*
X120483000Y-102544571D02*
X121054428Y-102544571D01*
X121054428Y-103068380D02*
X121054428Y-102068380D01*
X121435380Y-102401714D02*
X121959190Y-102401714D01*
X121435380Y-103068380D01*
X121959190Y-103068380D01*
X91479714Y-79406333D02*
X92146380Y-79168238D01*
X91479714Y-78930142D01*
X92146380Y-78406333D02*
X92098761Y-78501571D01*
X92051142Y-78549190D01*
X91955904Y-78596809D01*
X91670190Y-78596809D01*
X91574952Y-78549190D01*
X91527333Y-78501571D01*
X91479714Y-78406333D01*
X91479714Y-78263476D01*
X91527333Y-78168238D01*
X91574952Y-78120619D01*
X91670190Y-78073000D01*
X91955904Y-78073000D01*
X92051142Y-78120619D01*
X92098761Y-78168238D01*
X92146380Y-78263476D01*
X92146380Y-78406333D01*
X92146380Y-77501571D02*
X92098761Y-77596809D01*
X92003523Y-77644428D01*
X91146380Y-77644428D01*
X91479714Y-77263476D02*
X91479714Y-76882523D01*
X91146380Y-77120619D02*
X92003523Y-77120619D01*
X92098761Y-77073000D01*
X92146380Y-76977761D01*
X92146380Y-76882523D01*
X92146380Y-76120619D02*
X91622571Y-76120619D01*
X91527333Y-76168238D01*
X91479714Y-76263476D01*
X91479714Y-76453952D01*
X91527333Y-76549190D01*
X92098761Y-76120619D02*
X92146380Y-76215857D01*
X92146380Y-76453952D01*
X92098761Y-76549190D01*
X92003523Y-76596809D01*
X91908285Y-76596809D01*
X91813047Y-76549190D01*
X91765428Y-76453952D01*
X91765428Y-76215857D01*
X91717809Y-76120619D01*
X92146380Y-75644428D02*
X91479714Y-75644428D01*
X91146380Y-75644428D02*
X91194000Y-75692047D01*
X91241619Y-75644428D01*
X91194000Y-75596809D01*
X91146380Y-75644428D01*
X91241619Y-75644428D01*
X92146380Y-75168238D02*
X91479714Y-75168238D01*
X91670190Y-75168238D02*
X91574952Y-75120619D01*
X91527333Y-75073000D01*
X91479714Y-74977761D01*
X91479714Y-74882523D01*
X92051142Y-74549190D02*
X92098761Y-74501571D01*
X92146380Y-74549190D01*
X92098761Y-74596809D01*
X92051142Y-74549190D01*
X92146380Y-74549190D01*
X91479714Y-73644428D02*
X92146380Y-73644428D01*
X91479714Y-74073000D02*
X92003523Y-74073000D01*
X92098761Y-74025380D01*
X92146380Y-73930142D01*
X92146380Y-73787285D01*
X92098761Y-73692047D01*
X92051142Y-73644428D01*
X92098761Y-73215857D02*
X92146380Y-73120619D01*
X92146380Y-72930142D01*
X92098761Y-72834904D01*
X92003523Y-72787285D01*
X91955904Y-72787285D01*
X91860666Y-72834904D01*
X91813047Y-72930142D01*
X91813047Y-73073000D01*
X91765428Y-73168238D01*
X91670190Y-73215857D01*
X91622571Y-73215857D01*
X91527333Y-73168238D01*
X91479714Y-73073000D01*
X91479714Y-72930142D01*
X91527333Y-72834904D01*
X97798095Y-91067380D02*
X97798095Y-90067380D01*
X98131428Y-90781666D01*
X98464761Y-90067380D01*
X98464761Y-91067380D01*
X98798095Y-90067380D02*
X99131428Y-91067380D01*
X99464761Y-90067380D01*
X100369523Y-90972142D02*
X100321904Y-91019761D01*
X100179047Y-91067380D01*
X100083809Y-91067380D01*
X99940952Y-91019761D01*
X99845714Y-90924523D01*
X99798095Y-90829285D01*
X99750476Y-90638809D01*
X99750476Y-90495952D01*
X99798095Y-90305476D01*
X99845714Y-90210238D01*
X99940952Y-90115000D01*
X100083809Y-90067380D01*
X100179047Y-90067380D01*
X100321904Y-90115000D01*
X100369523Y-90162619D01*
X94536190Y-92669761D02*
X94679047Y-92717380D01*
X94917142Y-92717380D01*
X95012380Y-92669761D01*
X95060000Y-92622142D01*
X95107619Y-92526904D01*
X95107619Y-92431666D01*
X95060000Y-92336428D01*
X95012380Y-92288809D01*
X94917142Y-92241190D01*
X94726666Y-92193571D01*
X94631428Y-92145952D01*
X94583809Y-92098333D01*
X94536190Y-92003095D01*
X94536190Y-91907857D01*
X94583809Y-91812619D01*
X94631428Y-91765000D01*
X94726666Y-91717380D01*
X94964761Y-91717380D01*
X95107619Y-91765000D01*
X95917142Y-92669761D02*
X95821904Y-92717380D01*
X95631428Y-92717380D01*
X95536190Y-92669761D01*
X95488571Y-92574523D01*
X95488571Y-92193571D01*
X95536190Y-92098333D01*
X95631428Y-92050714D01*
X95821904Y-92050714D01*
X95917142Y-92098333D01*
X95964761Y-92193571D01*
X95964761Y-92288809D01*
X95488571Y-92384047D01*
X96393333Y-92717380D02*
X96393333Y-92050714D01*
X96393333Y-92241190D02*
X96440952Y-92145952D01*
X96488571Y-92098333D01*
X96583809Y-92050714D01*
X96679047Y-92050714D01*
X97012380Y-92717380D02*
X97012380Y-92050714D01*
X97012380Y-91717380D02*
X96964761Y-91765000D01*
X97012380Y-91812619D01*
X97060000Y-91765000D01*
X97012380Y-91717380D01*
X97012380Y-91812619D01*
X97917142Y-92717380D02*
X97917142Y-92193571D01*
X97869523Y-92098333D01*
X97774285Y-92050714D01*
X97583809Y-92050714D01*
X97488571Y-92098333D01*
X97917142Y-92669761D02*
X97821904Y-92717380D01*
X97583809Y-92717380D01*
X97488571Y-92669761D01*
X97440952Y-92574523D01*
X97440952Y-92479285D01*
X97488571Y-92384047D01*
X97583809Y-92336428D01*
X97821904Y-92336428D01*
X97917142Y-92288809D01*
X98536190Y-92717380D02*
X98440952Y-92669761D01*
X98393333Y-92574523D01*
X98393333Y-91717380D01*
X100012380Y-92193571D02*
X100155238Y-92241190D01*
X100202857Y-92288809D01*
X100250476Y-92384047D01*
X100250476Y-92526904D01*
X100202857Y-92622142D01*
X100155238Y-92669761D01*
X100060000Y-92717380D01*
X99679047Y-92717380D01*
X99679047Y-91717380D01*
X100012380Y-91717380D01*
X100107619Y-91765000D01*
X100155238Y-91812619D01*
X100202857Y-91907857D01*
X100202857Y-92003095D01*
X100155238Y-92098333D01*
X100107619Y-92145952D01*
X100012380Y-92193571D01*
X99679047Y-92193571D01*
X100821904Y-92717380D02*
X100726666Y-92669761D01*
X100679047Y-92622142D01*
X100631428Y-92526904D01*
X100631428Y-92241190D01*
X100679047Y-92145952D01*
X100726666Y-92098333D01*
X100821904Y-92050714D01*
X100964761Y-92050714D01*
X101060000Y-92098333D01*
X101107619Y-92145952D01*
X101155238Y-92241190D01*
X101155238Y-92526904D01*
X101107619Y-92622142D01*
X101060000Y-92669761D01*
X100964761Y-92717380D01*
X100821904Y-92717380D01*
X102012380Y-92717380D02*
X102012380Y-92193571D01*
X101964761Y-92098333D01*
X101869523Y-92050714D01*
X101679047Y-92050714D01*
X101583809Y-92098333D01*
X102012380Y-92669761D02*
X101917142Y-92717380D01*
X101679047Y-92717380D01*
X101583809Y-92669761D01*
X101536190Y-92574523D01*
X101536190Y-92479285D01*
X101583809Y-92384047D01*
X101679047Y-92336428D01*
X101917142Y-92336428D01*
X102012380Y-92288809D01*
X102488571Y-92717380D02*
X102488571Y-92050714D01*
X102488571Y-92241190D02*
X102536190Y-92145952D01*
X102583809Y-92098333D01*
X102679047Y-92050714D01*
X102774285Y-92050714D01*
X103536190Y-92717380D02*
X103536190Y-91717380D01*
X103536190Y-92669761D02*
X103440952Y-92717380D01*
X103250476Y-92717380D01*
X103155238Y-92669761D01*
X103107619Y-92622142D01*
X103060000Y-92526904D01*
X103060000Y-92241190D01*
X103107619Y-92145952D01*
X103155238Y-92098333D01*
X103250476Y-92050714D01*
X103440952Y-92050714D01*
X103536190Y-92098333D01*
D11*
X108010000Y-102930000D02*
X108010000Y-100270000D01*
X95250000Y-102930000D02*
X108010000Y-102930000D01*
X95250000Y-100270000D02*
X108010000Y-100270000D01*
X95250000Y-102930000D02*
X95250000Y-100270000D01*
X93980000Y-102930000D02*
X92650000Y-102930000D01*
X92650000Y-102930000D02*
X92650000Y-101600000D01*
X67250000Y-57090000D02*
X67250000Y-62290000D01*
X123190000Y-57090000D02*
X67250000Y-57090000D01*
X125790000Y-62290000D02*
X67250000Y-62290000D01*
X123190000Y-57090000D02*
X123190000Y-59690000D01*
X123190000Y-59690000D02*
X125790000Y-59690000D01*
X125790000Y-59690000D02*
X125790000Y-62290000D01*
X124460000Y-57090000D02*
X125790000Y-57090000D01*
X125790000Y-57090000D02*
X125790000Y-58420000D01*
X120360000Y-67250000D02*
X119110000Y-67250000D01*
X120360000Y-85150000D02*
X120360000Y-67250000D01*
X115860000Y-85150000D02*
X120360000Y-85150000D01*
X115860000Y-67250000D02*
X115860000Y-85150000D01*
X117110000Y-67250000D02*
X115860000Y-67250000D01*
X119110000Y-67250000D02*
G75*
G02X117110000Y-67250000I-1000000J0D01*
G01*
X103870000Y-67377000D02*
G75*
G02X101870000Y-67377000I-1000000J0D01*
G01*
X101870000Y-67377000D02*
X100620000Y-67377000D01*
X100620000Y-67377000D02*
X100620000Y-85277000D01*
X100620000Y-85277000D02*
X105120000Y-85277000D01*
X105120000Y-85277000D02*
X105120000Y-67377000D01*
X105120000Y-67377000D02*
X103870000Y-67377000D01*
X77200000Y-67250000D02*
G75*
G02X75200000Y-67250000I-1000000J0D01*
G01*
X75200000Y-67250000D02*
X70140000Y-67250000D01*
X70140000Y-67250000D02*
X70140000Y-102930000D01*
X70140000Y-102930000D02*
X82260000Y-102930000D01*
X82260000Y-102930000D02*
X82260000Y-67250000D01*
X82260000Y-67250000D02*
X77200000Y-67250000D01*
X111660000Y-89550000D02*
X111660000Y-101700000D01*
X123810000Y-88800000D02*
X112410000Y-88800000D01*
X124560000Y-100950000D02*
X124560000Y-89550000D01*
X111660000Y-101700000D02*
X123810000Y-101700000D01*
X123810000Y-101700000D02*
G75*
G03X124560000Y-100950000I0J750000D01*
G01*
X124560000Y-89550000D02*
G75*
G03X123810000Y-88800000I-750000J0D01*
G01*
X112410000Y-88800000D02*
G75*
G03X111660000Y-89550000I0J-750000D01*
G01*
D10*
X100473333Y-98988571D02*
X100140000Y-98988571D01*
X100140000Y-99512380D02*
X100140000Y-98512380D01*
X100616190Y-98512380D01*
X100854285Y-98512380D02*
X101425714Y-98512380D01*
X101140000Y-99512380D02*
X101140000Y-98512380D01*
X101759047Y-99512380D02*
X101759047Y-98512380D01*
X101997142Y-98512380D01*
X102140000Y-98560000D01*
X102235238Y-98655238D01*
X102282857Y-98750476D01*
X102330476Y-98940952D01*
X102330476Y-99083809D01*
X102282857Y-99274285D01*
X102235238Y-99369523D01*
X102140000Y-99464761D01*
X101997142Y-99512380D01*
X101759047Y-99512380D01*
X102759047Y-99512380D02*
X102759047Y-98512380D01*
X103949523Y-98464761D02*
X103092380Y-99750476D01*
X104235238Y-99464761D02*
X104378095Y-99512380D01*
X104616190Y-99512380D01*
X104711428Y-99464761D01*
X104759047Y-99417142D01*
X104806666Y-99321904D01*
X104806666Y-99226666D01*
X104759047Y-99131428D01*
X104711428Y-99083809D01*
X104616190Y-99036190D01*
X104425714Y-98988571D01*
X104330476Y-98940952D01*
X104282857Y-98893333D01*
X104235238Y-98798095D01*
X104235238Y-98702857D01*
X104282857Y-98607619D01*
X104330476Y-98560000D01*
X104425714Y-98512380D01*
X104663809Y-98512380D01*
X104806666Y-98560000D01*
X105616190Y-99464761D02*
X105520952Y-99512380D01*
X105330476Y-99512380D01*
X105235238Y-99464761D01*
X105187619Y-99369523D01*
X105187619Y-98988571D01*
X105235238Y-98893333D01*
X105330476Y-98845714D01*
X105520952Y-98845714D01*
X105616190Y-98893333D01*
X105663809Y-98988571D01*
X105663809Y-99083809D01*
X105187619Y-99179047D01*
X106092380Y-99512380D02*
X106092380Y-98845714D01*
X106092380Y-99036190D02*
X106140000Y-98940952D01*
X106187619Y-98893333D01*
X106282857Y-98845714D01*
X106378095Y-98845714D01*
X106711428Y-99512380D02*
X106711428Y-98845714D01*
X106711428Y-98512380D02*
X106663809Y-98560000D01*
X106711428Y-98607619D01*
X106759047Y-98560000D01*
X106711428Y-98512380D01*
X106711428Y-98607619D01*
X107616190Y-99512380D02*
X107616190Y-98988571D01*
X107568571Y-98893333D01*
X107473333Y-98845714D01*
X107282857Y-98845714D01*
X107187619Y-98893333D01*
X107616190Y-99464761D02*
X107520952Y-99512380D01*
X107282857Y-99512380D01*
X107187619Y-99464761D01*
X107140000Y-99369523D01*
X107140000Y-99274285D01*
X107187619Y-99179047D01*
X107282857Y-99131428D01*
X107520952Y-99131428D01*
X107616190Y-99083809D01*
X108235238Y-99512380D02*
X108140000Y-99464761D01*
X108092380Y-99369523D01*
X108092380Y-98512380D01*
X117348095Y-65702380D02*
X117348095Y-66511904D01*
X117395714Y-66607142D01*
X117443333Y-66654761D01*
X117538571Y-66702380D01*
X117729047Y-66702380D01*
X117824285Y-66654761D01*
X117871904Y-66607142D01*
X117919523Y-66511904D01*
X117919523Y-65702380D01*
X118919523Y-66702380D02*
X118348095Y-66702380D01*
X118633809Y-66702380D02*
X118633809Y-65702380D01*
X118538571Y-65845238D01*
X118443333Y-65940476D01*
X118348095Y-65988095D01*
X115324285Y-85602380D02*
X115990952Y-85602380D01*
X115562380Y-86602380D01*
X116800476Y-85935714D02*
X116800476Y-86602380D01*
X116562380Y-85554761D02*
X116324285Y-86269047D01*
X116943333Y-86269047D01*
X117324285Y-86602380D02*
X117324285Y-85602380D01*
X117324285Y-86078571D02*
X117895714Y-86078571D01*
X117895714Y-86602380D02*
X117895714Y-85602380D01*
X118943333Y-86507142D02*
X118895714Y-86554761D01*
X118752857Y-86602380D01*
X118657619Y-86602380D01*
X118514761Y-86554761D01*
X118419523Y-86459523D01*
X118371904Y-86364285D01*
X118324285Y-86173809D01*
X118324285Y-86030952D01*
X118371904Y-85840476D01*
X118419523Y-85745238D01*
X118514761Y-85650000D01*
X118657619Y-85602380D01*
X118752857Y-85602380D01*
X118895714Y-85650000D01*
X118943333Y-85697619D01*
X119562380Y-85602380D02*
X119657619Y-85602380D01*
X119752857Y-85650000D01*
X119800476Y-85697619D01*
X119848095Y-85792857D01*
X119895714Y-85983333D01*
X119895714Y-86221428D01*
X119848095Y-86411904D01*
X119800476Y-86507142D01*
X119752857Y-86554761D01*
X119657619Y-86602380D01*
X119562380Y-86602380D01*
X119467142Y-86554761D01*
X119419523Y-86507142D01*
X119371904Y-86411904D01*
X119324285Y-86221428D01*
X119324285Y-85983333D01*
X119371904Y-85792857D01*
X119419523Y-85697619D01*
X119467142Y-85650000D01*
X119562380Y-85602380D01*
X120276666Y-85697619D02*
X120324285Y-85650000D01*
X120419523Y-85602380D01*
X120657619Y-85602380D01*
X120752857Y-85650000D01*
X120800476Y-85697619D01*
X120848095Y-85792857D01*
X120848095Y-85888095D01*
X120800476Y-86030952D01*
X120229047Y-86602380D01*
X120848095Y-86602380D01*
X102108095Y-65829380D02*
X102108095Y-66638904D01*
X102155714Y-66734142D01*
X102203333Y-66781761D01*
X102298571Y-66829380D01*
X102489047Y-66829380D01*
X102584285Y-66781761D01*
X102631904Y-66734142D01*
X102679523Y-66638904D01*
X102679523Y-65829380D01*
X103108095Y-65924619D02*
X103155714Y-65877000D01*
X103250952Y-65829380D01*
X103489047Y-65829380D01*
X103584285Y-65877000D01*
X103631904Y-65924619D01*
X103679523Y-66019857D01*
X103679523Y-66115095D01*
X103631904Y-66257952D01*
X103060476Y-66829380D01*
X103679523Y-66829380D01*
X100084285Y-85729380D02*
X100750952Y-85729380D01*
X100322380Y-86729380D01*
X101560476Y-86062714D02*
X101560476Y-86729380D01*
X101322380Y-85681761D02*
X101084285Y-86396047D01*
X101703333Y-86396047D01*
X102084285Y-86729380D02*
X102084285Y-85729380D01*
X102084285Y-86205571D02*
X102655714Y-86205571D01*
X102655714Y-86729380D02*
X102655714Y-85729380D01*
X103703333Y-86634142D02*
X103655714Y-86681761D01*
X103512857Y-86729380D01*
X103417619Y-86729380D01*
X103274761Y-86681761D01*
X103179523Y-86586523D01*
X103131904Y-86491285D01*
X103084285Y-86300809D01*
X103084285Y-86157952D01*
X103131904Y-85967476D01*
X103179523Y-85872238D01*
X103274761Y-85777000D01*
X103417619Y-85729380D01*
X103512857Y-85729380D01*
X103655714Y-85777000D01*
X103703333Y-85824619D01*
X104322380Y-85729380D02*
X104417619Y-85729380D01*
X104512857Y-85777000D01*
X104560476Y-85824619D01*
X104608095Y-85919857D01*
X104655714Y-86110333D01*
X104655714Y-86348428D01*
X104608095Y-86538904D01*
X104560476Y-86634142D01*
X104512857Y-86681761D01*
X104417619Y-86729380D01*
X104322380Y-86729380D01*
X104227142Y-86681761D01*
X104179523Y-86634142D01*
X104131904Y-86538904D01*
X104084285Y-86348428D01*
X104084285Y-86110333D01*
X104131904Y-85919857D01*
X104179523Y-85824619D01*
X104227142Y-85777000D01*
X104322380Y-85729380D01*
X105274761Y-85729380D02*
X105370000Y-85729380D01*
X105465238Y-85777000D01*
X105512857Y-85824619D01*
X105560476Y-85919857D01*
X105608095Y-86110333D01*
X105608095Y-86348428D01*
X105560476Y-86538904D01*
X105512857Y-86634142D01*
X105465238Y-86681761D01*
X105370000Y-86729380D01*
X105274761Y-86729380D01*
X105179523Y-86681761D01*
X105131904Y-86634142D01*
X105084285Y-86538904D01*
X105036666Y-86348428D01*
X105036666Y-86110333D01*
X105084285Y-85919857D01*
X105131904Y-85824619D01*
X105179523Y-85777000D01*
X105274761Y-85729380D01*
X75438095Y-65702380D02*
X75438095Y-66511904D01*
X75485714Y-66607142D01*
X75533333Y-66654761D01*
X75628571Y-66702380D01*
X75819047Y-66702380D01*
X75914285Y-66654761D01*
X75961904Y-66607142D01*
X76009523Y-66511904D01*
X76009523Y-65702380D01*
X76390476Y-65702380D02*
X77009523Y-65702380D01*
X76676190Y-66083333D01*
X76819047Y-66083333D01*
X76914285Y-66130952D01*
X76961904Y-66178571D01*
X77009523Y-66273809D01*
X77009523Y-66511904D01*
X76961904Y-66607142D01*
X76914285Y-66654761D01*
X76819047Y-66702380D01*
X76533333Y-66702380D01*
X76438095Y-66654761D01*
X76390476Y-66607142D01*
X75906666Y-101052380D02*
X76144761Y-102052380D01*
X76335238Y-101338095D01*
X76525714Y-102052380D01*
X76763809Y-101052380D01*
X77573333Y-101052380D02*
X77382857Y-101052380D01*
X77287619Y-101100000D01*
X77240000Y-101147619D01*
X77144761Y-101290476D01*
X77097142Y-101480952D01*
X77097142Y-101861904D01*
X77144761Y-101957142D01*
X77192380Y-102004761D01*
X77287619Y-102052380D01*
X77478095Y-102052380D01*
X77573333Y-102004761D01*
X77620952Y-101957142D01*
X77668571Y-101861904D01*
X77668571Y-101623809D01*
X77620952Y-101528571D01*
X77573333Y-101480952D01*
X77478095Y-101433333D01*
X77287619Y-101433333D01*
X77192380Y-101480952D01*
X77144761Y-101528571D01*
X77097142Y-101623809D01*
X78573333Y-101052380D02*
X78097142Y-101052380D01*
X78049523Y-101528571D01*
X78097142Y-101480952D01*
X78192380Y-101433333D01*
X78430476Y-101433333D01*
X78525714Y-101480952D01*
X78573333Y-101528571D01*
X78620952Y-101623809D01*
X78620952Y-101861904D01*
X78573333Y-101957142D01*
X78525714Y-102004761D01*
X78430476Y-102052380D01*
X78192380Y-102052380D01*
X78097142Y-102004761D01*
X78049523Y-101957142D01*
X79620952Y-101957142D02*
X79573333Y-102004761D01*
X79430476Y-102052380D01*
X79335238Y-102052380D01*
X79192380Y-102004761D01*
X79097142Y-101909523D01*
X79049523Y-101814285D01*
X79001904Y-101623809D01*
X79001904Y-101480952D01*
X79049523Y-101290476D01*
X79097142Y-101195238D01*
X79192380Y-101100000D01*
X79335238Y-101052380D01*
X79430476Y-101052380D01*
X79573333Y-101100000D01*
X79620952Y-101147619D01*
X80525714Y-101052380D02*
X80049523Y-101052380D01*
X80001904Y-101528571D01*
X80049523Y-101480952D01*
X80144761Y-101433333D01*
X80382857Y-101433333D01*
X80478095Y-101480952D01*
X80525714Y-101528571D01*
X80573333Y-101623809D01*
X80573333Y-101861904D01*
X80525714Y-101957142D01*
X80478095Y-102004761D01*
X80382857Y-102052380D01*
X80144761Y-102052380D01*
X80049523Y-102004761D01*
X80001904Y-101957142D01*
X81525714Y-102052380D02*
X80954285Y-102052380D01*
X81240000Y-102052380D02*
X81240000Y-101052380D01*
X81144761Y-101195238D01*
X81049523Y-101290476D01*
X80954285Y-101338095D01*
M02*
