M48
; DRILL file {KiCad 5.1.5+dfsg1-2build2} date Thu 17 Jun 2021 08:27:00 PM EDT
; FORMAT={-:-/ absolute / inch / decimal}
; #@! TF.CreationDate,2021-06-17T20:27:00-04:00
; #@! TF.GenerationSoftware,Kicad,Pcbnew,5.1.5+dfsg1-2build2
; #@! TF.FileFunction,Plated,1,2,PTH
FMAT,2
INCH
T1C0.0157
T2C0.0315
T3C0.0394
%
G90
G05
T1
X2.95Y-2.595
X3.02Y-2.53
X3.09Y-3.9
X3.59Y-2.58
X3.6Y-3.625
X3.63Y-2.955
X3.81Y-3.8785
X3.835Y-3.68
X4.3277Y-3.0377
X4.54Y-2.53
X4.625Y-2.68
X4.6535Y-2.6022
X4.675Y-2.525
X4.735Y-2.525
T2
X2.7Y-2.7
X2.7Y-2.8
X2.7Y-2.9
X2.7Y-3.0
X2.7Y-3.1
X2.7Y-3.2
X2.7Y-3.3
X2.7Y-3.4
X2.7Y-3.5
X2.7Y-3.6
X2.7Y-3.7
X2.7Y-3.8
X2.7Y-3.9
X2.7Y-4.0
X3.3Y-2.7
X3.3Y-2.8
X3.3Y-2.9
X3.3Y-3.0
X3.3Y-3.1
X3.3Y-3.2
X3.3Y-3.3
X3.3Y-3.4
X3.3Y-3.5
X3.3Y-3.6
X3.3Y-3.7
X3.3Y-3.8
X3.3Y-3.9
X3.3Y-4.0
X4.5Y-3.6
X4.5Y-3.9
X4.8Y-3.6
X4.8Y-3.9
X4.5Y-2.7
X4.5Y-2.8
X4.5Y-2.9
X4.5Y-3.0
X4.5Y-3.1
X4.5Y-3.2
X4.5Y-3.3
X4.8Y-2.7
X4.8Y-2.8
X4.8Y-2.9
X4.8Y-3.0
X4.8Y-3.1
X4.8Y-3.2
X4.8Y-3.3
X3.9Y-2.705
X3.9Y-2.805
X3.9Y-2.905
X3.9Y-3.005
X3.9Y-3.105
X3.9Y-3.205
X3.9Y-3.305
X4.2Y-2.705
X4.2Y-2.805
X4.2Y-2.905
X4.2Y-3.005
X4.2Y-3.105
X4.2Y-3.205
X4.2Y-3.305
T3
X2.7Y-2.3
X2.7Y-2.4
X2.8Y-2.3
X2.8Y-2.4
X2.9Y-2.3
X2.9Y-2.4
X3.0Y-2.3
X3.0Y-2.4
X3.1Y-2.3
X3.1Y-2.4
X3.2Y-2.3
X3.2Y-2.4
X3.3Y-2.3
X3.3Y-2.4
X3.4Y-2.3
X3.4Y-2.4
X3.5Y-2.3
X3.5Y-2.4
X3.6Y-2.3
X3.6Y-2.4
X3.7Y-2.3
X3.7Y-2.4
X3.8Y-2.3
X3.8Y-2.4
X3.9Y-2.3
X3.9Y-2.4
X4.0Y-2.3
X4.0Y-2.4
X4.1Y-2.3
X4.1Y-2.4
X4.2Y-2.3
X4.2Y-2.4
X4.3Y-2.3
X4.3Y-2.4
X4.4Y-2.3
X4.4Y-2.4
X4.5Y-2.3
X4.5Y-2.4
X4.6Y-2.3
X4.6Y-2.4
X4.7Y-2.3
X4.7Y-2.4
X4.8Y-2.3
X4.8Y-2.4
X4.9Y-2.3
X4.9Y-2.4
X3.7Y-4.0
X3.8Y-4.0
X3.9Y-4.0
X4.0Y-4.0
X4.1Y-4.0
X4.2Y-4.0
T0
M30
