M48
; DRILL file {KiCad (5.1.5)-3} date 10/9/2020 7:11:30 PM
; FORMAT={-:-/ absolute / inch / decimal}
; #@! TF.CreationDate,2020-10-09T19:11:30-04:00
; #@! TF.GenerationSoftware,Kicad,Pcbnew,(5.1.5)-3
; #@! TF.FileFunction,Plated,1,2,PTH
FMAT,2
INCH
T1C0.0157
T2C0.0315
T3C0.0354
T4C0.0394
T5C0.0433
%
G90
G05
T1
X2.3831Y-2.9358
X2.3854Y-3.2142
X2.6555Y-4.8713
X2.6913Y-3.2563
X2.6929Y-3.0512
X2.701Y-3.6732
X2.7402Y-3.0866
X2.9343Y-2.2678
X2.9477Y-2.8933
X2.9846Y-4.9295
X2.9893Y-2.6472
X3.0195Y-3.8047
X3.0256Y-3.8732
X3.0287Y-3.9748
X3.0354Y-2.8433
X3.0902Y-4.0732
X3.1094Y-2.8719
X3.1425Y-2.4528
X3.1662Y-2.9256
X3.182Y-2.8896
X3.3498Y-3.7278
X3.3931Y-4.5209
X3.4069Y-3.7362
X3.407Y-4.8282
X3.4084Y-3.7794
X3.413Y-4.776
X3.4213Y-5.1614
X3.4463Y-3.7362
X3.4484Y-3.4587
X3.4606Y-5.2677
X3.4843Y-5.0669
X3.4843Y-5.1693
X3.4935Y-4.7709
X3.4935Y-4.874
X3.4941Y-3.4638
X3.5254Y-4.1732
X3.5283Y-3.113
X3.5335Y-4.4732
X3.5413Y-4.3732
X3.5431Y-4.2732
X3.5433Y-5.1496
X3.572Y-4.6457
X3.5728Y-3.1138
X3.5787Y-5.185
X3.6173Y-3.1126
X3.6248Y-5.0134
X3.6622Y-3.1114
X3.7969Y-3.0744
X3.8661Y-4.4724
X3.9296Y-4.501
X3.9331Y-3.5276
X3.9535Y-3.0173
X3.9731Y-3.4289
X3.9846Y-4.5604
X3.9925Y-4.9706
X3.9972Y-2.9236
X4.0173Y-3.1917
X4.0317Y-4.9675
X4.0432Y-3.3899
X4.0661Y-3.322
X4.0712Y-4.9679
X4.0866Y-3.4724
X4.1105Y-4.9675
X4.1378Y-3.5748
X4.1732Y-4.6547
X4.1791Y-4.5604
X4.1844Y-4.9366
X4.2559Y-3.3295
X4.4898Y-3.3701
X4.4902Y-3.239
X4.5354Y-3.4732
X4.5366Y-3.2366
X4.5551Y-5.0787
X4.5876Y-3.5748
X4.589Y-3.2354
X4.6053Y-3.6732
X4.6063Y-5.0787
X4.6339Y-3.7732
X4.6378Y-4.0236
X4.6378Y-4.5709
X4.6398Y-3.2346
X4.6693Y-5.626
X4.6732Y-3.874
X4.6772Y-3.9291
X4.6772Y-4.4803
X4.6866Y-3.235
X4.7126Y-3.8228
X4.7165Y-4.3858
X4.737Y-3.2339
X4.7435Y-3.7283
X4.7441Y-4.3031
X4.7612Y-3.6339
X4.7835Y-4.0236
X4.8173Y-3.226
X4.824Y-3.9732
X4.8268Y-3.8189
X4.8346Y-3.6339
X4.8346Y-3.7244
X4.8691Y-3.4775
X4.9136Y-3.4289
X4.9301Y-3.6289
X4.9606Y-5.622
X5.0496Y-3.2315
X5.0524Y-4.1732
X5.0937Y-3.2343
X5.0965Y-4.0709
X5.139Y-3.2358
X5.1421Y-4.3425
X5.1941Y-3.2335
X5.2012Y-4.2717
X5.3228Y-4.9685
X5.4087Y-3.2224
X5.5Y-3.5315
X5.5Y-4.1654
X5.6024Y-3.5669
X5.6024Y-3.9685
X5.6567Y-3.5724
X6.0236Y-4.0709
X6.0768Y-3.5063
X6.4409Y-4.8504
X6.5197Y-3.4803
X6.563Y-4.2441
X6.5787Y-3.4803
X6.7402Y-3.5354
X6.7717Y-3.6732
X6.7795Y-4.7874
X6.8189Y-3.7756
X6.8189Y-4.7598
X6.8583Y-3.878
X6.8661Y-4.7598
X6.9016Y-4.7913
X6.9055Y-3.9764
X6.9331Y-4.2362
T2
X4.6929Y-5.0748
X4.9929Y-5.0748
X5.9764Y-2.7118
X5.9764Y-3.0118
X6.0764Y-2.7118
X6.0764Y-3.0118
X6.1764Y-2.7118
X6.1764Y-3.0118
X6.2764Y-2.7118
X6.2764Y-3.0118
X6.3764Y-2.7118
X6.3764Y-3.0118
X6.4764Y-2.7118
X6.4764Y-3.0118
X6.5764Y-2.7118
X6.5764Y-3.0118
X2.5157Y-2.1181
X2.6142Y-2.1181
X3.7843Y-3.2732
X3.7843Y-3.3732
X3.7843Y-3.4732
X3.7843Y-3.5732
X3.7843Y-3.6732
X3.7843Y-3.7732
X3.7843Y-3.8732
X3.7843Y-3.9732
X3.7843Y-4.0732
X3.7843Y-4.1732
X3.7843Y-4.2732
X3.7843Y-4.3732
X3.7843Y-4.4732
X3.7843Y-4.5732
X3.7843Y-4.6732
X3.7843Y-4.7732
X3.7843Y-4.8732
X3.7843Y-4.9732
X3.7843Y-5.0732
X3.7843Y-5.1732
X4.3843Y-3.2732
X4.3843Y-3.3732
X4.3843Y-3.4732
X4.3843Y-3.5732
X4.3843Y-3.6732
X4.3843Y-3.7732
X4.3843Y-3.8732
X4.3843Y-3.9732
X4.3843Y-4.0732
X4.3843Y-4.1732
X4.3843Y-4.2732
X4.3843Y-4.3732
X4.3843Y-4.4732
X4.3843Y-4.5732
X4.3843Y-4.6732
X4.3843Y-4.7732
X4.3843Y-4.8732
X4.3843Y-4.9732
X4.3843Y-5.0732
X4.3843Y-5.1732
X5.5157Y-5.0866
X5.6142Y-5.0866
X3.0Y-2.4567
X3.0Y-2.7567
X4.5906Y-5.7402
X4.689Y-5.7402
X7.2756Y-3.1496
X7.2756Y-3.248
X5.6744Y-2.0886
X5.6744Y-2.3886
X5.7744Y-2.0886
X5.7744Y-2.3886
X5.8744Y-2.0886
X5.8744Y-2.3886
X5.9744Y-2.0886
X5.9744Y-2.3886
X6.0744Y-2.0886
X6.0744Y-2.3886
X6.1744Y-2.0886
X6.1744Y-2.3886
X6.2744Y-2.0886
X6.2744Y-2.3886
X6.3744Y-2.0886
X6.3744Y-2.3886
X6.4744Y-2.0886
X6.4744Y-2.3886
X6.5744Y-2.0886
X6.5744Y-2.3886
X6.6744Y-2.0886
X6.6744Y-2.3886
X6.7744Y-2.0886
X6.7744Y-2.3886
X6.8744Y-2.0886
X6.8744Y-2.3886
X6.9744Y-2.0886
X6.9744Y-2.3886
X2.2583Y-3.0732
X2.2583Y-3.1732
X2.2583Y-3.2732
X2.2583Y-3.3732
X2.2583Y-3.4732
X2.2583Y-3.5732
X2.2583Y-3.6732
X2.2583Y-3.7732
X2.2583Y-3.8732
X2.2583Y-3.9732
X2.2583Y-4.0732
X2.2583Y-4.1732
X2.2583Y-4.2732
X2.2583Y-4.3732
X2.2583Y-4.4732
X2.2583Y-4.5732
X2.2583Y-4.6732
X2.2583Y-4.7732
X2.2583Y-4.8732
X2.2583Y-4.9732
X2.8583Y-3.0732
X2.8583Y-3.1732
X2.8583Y-3.2732
X2.8583Y-3.3732
X2.8583Y-3.4732
X2.8583Y-3.5732
X2.8583Y-3.6732
X2.8583Y-3.7732
X2.8583Y-3.8732
X2.8583Y-3.9732
X2.8583Y-4.0732
X2.8583Y-4.1732
X2.8583Y-4.2732
X2.8583Y-4.3732
X2.8583Y-4.4732
X2.8583Y-4.5732
X2.8583Y-4.6732
X2.8583Y-4.7732
X2.8583Y-4.8732
X2.8583Y-4.9732
X4.0394Y-3.0472
X4.1378Y-3.0472
X5.6969Y-2.7953
X5.6969Y-2.8937
X6.8071Y-2.7126
X6.8071Y-3.0126
X3.778Y-5.4685
X3.778Y-5.7685
X3.878Y-5.4685
X3.878Y-5.7685
X3.978Y-5.4685
X3.978Y-5.7685
X4.078Y-5.4685
X4.078Y-5.7685
X4.178Y-5.4685
X4.178Y-5.7685
X4.278Y-5.4685
X4.278Y-5.7685
X4.378Y-5.4685
X4.378Y-5.7685
X5.3858Y-2.0472
X5.3858Y-2.1457
X6.6843Y-3.4732
X6.6843Y-3.5732
X6.6843Y-3.6732
X6.6843Y-3.7732
X6.6843Y-3.8732
X6.6843Y-3.9732
X6.6843Y-4.0732
X6.6843Y-4.1732
X6.6843Y-4.2732
X6.6843Y-4.3732
X6.6843Y-4.4732
X6.6843Y-4.5732
X6.6843Y-4.6732
X6.6843Y-4.7732
X7.2843Y-3.4732
X7.2843Y-3.5732
X7.2843Y-3.6732
X7.2843Y-3.7732
X7.2843Y-3.8732
X7.2843Y-3.9732
X7.2843Y-4.0732
X7.2843Y-4.1732
X7.2843Y-4.2732
X7.2843Y-4.3732
X7.2843Y-4.4732
X7.2843Y-4.5732
X7.2843Y-4.6732
X7.2843Y-4.7732
X2.126Y-5.3031
X2.2244Y-5.3031
X4.9016Y-5.4677
X4.9016Y-5.7677
X5.0016Y-5.4677
X5.0016Y-5.7677
X5.1016Y-5.4677
X5.1016Y-5.7677
X5.2016Y-5.4677
X5.2016Y-5.7677
X5.3016Y-5.4677
X5.3016Y-5.7677
X5.4016Y-5.4677
X5.4016Y-5.7677
X5.5016Y-5.4677
X5.5016Y-5.7677
X2.7008Y-5.4047
X2.7008Y-5.7047
X3.3008Y-5.4047
X3.3008Y-5.7047
X5.2843Y-3.4732
X5.2843Y-3.5732
X5.2843Y-3.6732
X5.2843Y-3.7732
X5.2843Y-3.8732
X5.2843Y-3.9732
X5.2843Y-4.0732
X5.2843Y-4.1732
X5.2843Y-4.2732
X5.2843Y-4.3732
X5.2843Y-4.4732
X5.2843Y-4.5732
X5.2843Y-4.6732
X5.2843Y-4.7732
X5.8843Y-3.4732
X5.8843Y-3.5732
X5.8843Y-3.6732
X5.8843Y-3.7732
X5.8843Y-3.8732
X5.8843Y-3.9732
X5.8843Y-4.0732
X5.8843Y-4.1732
X5.8843Y-4.2732
X5.8843Y-4.3732
X5.8843Y-4.4732
X5.8843Y-4.5732
X5.8843Y-4.6732
X5.8843Y-4.7732
T3
X6.3Y-5.8
X6.6Y-5.8
X6.3Y-5.3
X6.6Y-5.3
X6.3Y-5.55
X6.6Y-5.55
X6.3Y-5.05
X6.6Y-5.05
T4
X7.0512Y-2.8031
X7.0512Y-2.9031
X3.2465Y-3.311
X3.2465Y-3.411
X3.3465Y-3.311
X3.3465Y-3.411
X2.8898Y-2.0472
X2.8898Y-2.1472
X2.9898Y-2.0472
X2.9898Y-2.1472
X3.0898Y-2.0472
X3.0898Y-2.1472
X3.1898Y-2.0472
X3.1898Y-2.1472
X3.2898Y-2.0472
X3.2898Y-2.1472
X3.3898Y-2.0472
X3.3898Y-2.1472
X3.4898Y-2.0472
X3.4898Y-2.1472
X3.5898Y-2.0472
X3.5898Y-2.1472
X3.6898Y-2.0472
X3.6898Y-2.1472
X3.7898Y-2.0472
X3.7898Y-2.1472
X3.8898Y-2.0472
X3.8898Y-2.1472
X3.9898Y-2.0472
X3.9898Y-2.1472
X4.0898Y-2.0472
X4.0898Y-2.1472
X4.1898Y-2.0472
X4.1898Y-2.1472
X4.2898Y-2.0472
X4.2898Y-2.1472
X4.3898Y-2.0472
X4.3898Y-2.1472
X4.4898Y-2.0472
X4.4898Y-2.1472
X4.5898Y-2.0472
X4.5898Y-2.1472
X4.6898Y-2.0472
X4.6898Y-2.1472
X4.7898Y-2.0472
X4.7898Y-2.1472
X4.8898Y-2.0472
X4.8898Y-2.1472
X4.9898Y-2.0472
X4.9898Y-2.1472
X5.0898Y-2.0472
X5.0898Y-2.1472
X2.0079Y-2.8732
X2.0079Y-2.9732
X2.0079Y-3.0732
X2.0079Y-3.1732
X2.0079Y-3.2732
X2.0079Y-3.3732
X2.0079Y-3.4732
X2.0079Y-3.5732
X2.0079Y-3.6732
X2.0079Y-3.7732
X2.0079Y-3.8732
X2.0079Y-3.9732
X2.0079Y-4.0732
X2.0079Y-4.1732
X2.0079Y-4.2732
X2.0079Y-4.3732
X2.0079Y-4.4732
X2.0079Y-4.5732
X2.0079Y-4.6732
X2.0079Y-4.7732
X2.0079Y-4.8732
X2.0079Y-4.9732
T5
X2.437Y-2.5315
X2.437Y-2.7087
X2.6929Y-2.5315
X2.6929Y-2.7087
T0
M30
